<?xml version="1.0" encoding="iso-8859-1"?>
<!-- Uploaded to: SVG Repo, www.svgrepo.com, Generator: SVG Repo Mixer Tools -->
<svg height="800px" width="800px" version="1.1" id="Layer_1" xmlns="http://www.w3.org/2000/svg" xmlns:xlink="http://www.w3.org/1999/xlink" 
	 viewBox="0 0 512.004 512.004" xml:space="preserve">
<path d="M368.908,277.508h-35.261c-3.995-36.13-32.829-64.964-68.959-68.959V45.097l44.38,88.674c1.476,3.04,4.516,4.777,7.73,4.777
	c1.303,0,2.605-0.261,3.908-0.955c4.256-2.084,5.993-7.295,3.821-11.638L263.732,4.364c-2.866-5.819-12.593-5.819-15.459,0
	l-60.795,121.59c-2.171,4.343-0.434,9.554,3.821,11.638c4.343,2.171,9.554,0.434,11.638-3.821l44.381-88.674v163.452
	c-36.13,3.995-64.964,32.829-68.959,68.959h-35.261c-4.777,0-8.685,3.908-8.685,8.685s3.908,8.685,8.685,8.685h35.261
	c3.995,36.13,32.829,64.964,68.959,68.959v139.482c0,4.777,3.908,8.685,8.685,8.685c4.777,0,8.685-3.908,8.685-8.685V363.838
	c36.13-3.995,64.964-32.829,68.959-68.959h35.261c4.777,0,8.685-3.908,8.685-8.685S373.684,277.508,368.908,277.508z
	 M247.317,346.294c-26.576-3.821-47.594-24.839-51.415-51.415h51.415V346.294z M247.317,277.508h-51.415
	c3.821-26.576,24.839-47.594,51.415-51.415V277.508z M264.687,346.294v-51.415h51.415
	C312.281,321.455,291.263,342.473,264.687,346.294z M264.687,277.508v-51.415c26.576,3.821,47.594,24.839,51.415,51.415H264.687z"/>
<path style="fill:#D81B60;" d="M247.317,294.879v51.415c-26.576-3.821-47.594-24.839-51.415-51.415L247.317,294.879L247.317,294.879
	z"/>
<path style="fill:#AD1457;" d="M316.103,294.879c-3.821,26.576-24.839,47.594-51.415,51.415v-51.415L316.103,294.879
	L316.103,294.879z"/>
<path style="fill:#D81B60;" d="M316.103,277.508h-51.415v-51.415C291.263,229.915,312.281,250.941,316.103,277.508z"/>
<path style="fill:#AD1457;" d="M247.317,226.093v51.415h-51.415C199.723,250.941,220.741,229.915,247.317,226.093z"/>
</svg>